<?xml version="1.0" encoding="UTF-8" standalone="no"?>
<svg
   xmlns:dc="http://purl.org/dc/elements/1.1/"
   xmlns:cc="http://creativecommons.org/ns#"
   xmlns:rdf="http://www.w3.org/1999/02/22-rdf-syntax-ns#"
   xmlns:svg="http://www.w3.org/2000/svg"
   xmlns="http://www.w3.org/2000/svg"
   xmlns:sodipodi="http://sodipodi.sourceforge.net/DTD/sodipodi-0.dtd"
   xmlns:inkscape="http://www.inkscape.org/namespaces/inkscape"
   width="86mm"
   height="40mm"
   viewBox="0 0 86 40"
   version="1.1"
   id="svg8"
   inkscape:version="1.0 (4035a4fb49, 2020-05-01)"
   sodipodi:docname="neuron.svg">
  <defs
     id="defs2">
    <marker
       inkscape:stockid="Arrow1Mend"
       orient="auto"
       refY="0"
       refX="0"
       id="Arrow1Mend"
       style="overflow:visible"
       inkscape:isstock="true">
      <path
         id="path6906"
         d="M 0,0 5,-5 -12.5,0 5,5 Z"
         style="fill:#000000;fill-opacity:1;fill-rule:evenodd;stroke:#000000;stroke-width:1pt;stroke-opacity:1"
         transform="matrix(-0.4,0,0,-0.4,-4,0)" />
    </marker>
    <marker
       inkscape:stockid="TriangleOutM"
       orient="auto"
       refY="0"
       refX="0"
       id="TriangleOutM"
       style="overflow:visible"
       inkscape:isstock="true">
      <path
         id="path7042"
         d="M 5.77,0 -2.88,5 V -5 Z"
         style="fill:#000000;fill-opacity:1;fill-rule:evenodd;stroke:#000000;stroke-width:1pt;stroke-opacity:1"
         transform="scale(0.4)" />
    </marker>
    <marker
       inkscape:stockid="Arrow1Lend"
       orient="auto"
       refY="0"
       refX="0"
       id="Arrow1Lend"
       style="overflow:visible"
       inkscape:isstock="true">
      <path
         id="path6900"
         d="M 0,0 5,-5 -12.5,0 5,5 Z"
         style="fill:#000000;fill-opacity:1;fill-rule:evenodd;stroke:#000000;stroke-width:1pt;stroke-opacity:1"
         transform="matrix(-0.8,0,0,-0.8,-10,0)" />
    </marker>
    <inkscape:path-effect
       effect="simplify"
       id="path-effect6022"
       is_visible="true"
       lpeversion="1"
       steps="1"
       threshold="0.00243902"
       smooth_angles="360"
       helper_size="0"
       simplify_individual_paths="false"
       simplify_just_coalesce="false" />
    <inkscape:path-effect
       effect="simplify"
       id="path-effect6018"
       is_visible="true"
       lpeversion="1"
       steps="1"
       threshold="0.00243902"
       smooth_angles="360"
       helper_size="0"
       simplify_individual_paths="false"
       simplify_just_coalesce="false" />
    <inkscape:path-effect
       effect="simplify"
       id="path-effect6012"
       is_visible="true"
       lpeversion="1"
       steps="1"
       threshold="0.00243902"
       smooth_angles="360"
       helper_size="0"
       simplify_individual_paths="false"
       simplify_just_coalesce="false" />
    <inkscape:path-effect
       effect="simplify"
       id="path-effect6008"
       is_visible="true"
       lpeversion="1"
       steps="1"
       threshold="0.00243902"
       smooth_angles="360"
       helper_size="0"
       simplify_individual_paths="false"
       simplify_just_coalesce="false" />
    <inkscape:path-effect
       effect="simplify"
       id="path-effect6004"
       is_visible="true"
       lpeversion="1"
       steps="1"
       threshold="0.00243902"
       smooth_angles="360"
       helper_size="0"
       simplify_individual_paths="false"
       simplify_just_coalesce="false" />
    <inkscape:path-effect
       effect="simplify"
       id="path-effect6000"
       is_visible="true"
       lpeversion="1"
       steps="1"
       threshold="0.00243902"
       smooth_angles="360"
       helper_size="0"
       simplify_individual_paths="false"
       simplify_just_coalesce="false" />
    <inkscape:path-effect
       effect="simplify"
       id="path-effect5996"
       is_visible="true"
       lpeversion="1"
       steps="1"
       threshold="0.00243902"
       smooth_angles="360"
       helper_size="0"
       simplify_individual_paths="false"
       simplify_just_coalesce="false" />
    <inkscape:path-effect
       effect="simplify"
       id="path-effect5992"
       is_visible="true"
       lpeversion="1"
       steps="1"
       threshold="0.00243902"
       smooth_angles="360"
       helper_size="0"
       simplify_individual_paths="false"
       simplify_just_coalesce="false" />
    <inkscape:path-effect
       effect="simplify"
       id="path-effect5988"
       is_visible="true"
       lpeversion="1"
       steps="1"
       threshold="0.00243902"
       smooth_angles="360"
       helper_size="0"
       simplify_individual_paths="false"
       simplify_just_coalesce="false" />
    <inkscape:path-effect
       effect="simplify"
       id="path-effect5984"
       is_visible="true"
       lpeversion="1"
       steps="1"
       threshold="0.00243902"
       smooth_angles="360"
       helper_size="0"
       simplify_individual_paths="false"
       simplify_just_coalesce="false" />
    <inkscape:path-effect
       effect="simplify"
       id="path-effect5980"
       is_visible="true"
       lpeversion="1"
       steps="1"
       threshold="0.00243902"
       smooth_angles="360"
       helper_size="0"
       simplify_individual_paths="false"
       simplify_just_coalesce="false" />
    <inkscape:path-effect
       effect="simplify"
       id="path-effect5976"
       is_visible="true"
       lpeversion="1"
       steps="1"
       threshold="0.00243902"
       smooth_angles="360"
       helper_size="0"
       simplify_individual_paths="false"
       simplify_just_coalesce="false" />
    <inkscape:path-effect
       effect="simplify"
       id="path-effect5972"
       is_visible="true"
       lpeversion="1"
       steps="1"
       threshold="0.00243902"
       smooth_angles="360"
       helper_size="0"
       simplify_individual_paths="false"
       simplify_just_coalesce="false" />
    <inkscape:path-effect
       effect="simplify"
       id="path-effect5968"
       is_visible="true"
       lpeversion="1"
       steps="1"
       threshold="0.00243902"
       smooth_angles="360"
       helper_size="0"
       simplify_individual_paths="false"
       simplify_just_coalesce="false" />
    <inkscape:path-effect
       effect="simplify"
       id="path-effect5964"
       is_visible="true"
       lpeversion="1"
       steps="1"
       threshold="0.00243902"
       smooth_angles="360"
       helper_size="0"
       simplify_individual_paths="false"
       simplify_just_coalesce="false" />
    <inkscape:path-effect
       effect="simplify"
       id="path-effect5960"
       is_visible="true"
       lpeversion="1"
       steps="1"
       threshold="0.00243902"
       smooth_angles="360"
       helper_size="0"
       simplify_individual_paths="false"
       simplify_just_coalesce="false" />
    <inkscape:path-effect
       effect="simplify"
       id="path-effect5956"
       is_visible="true"
       lpeversion="1"
       steps="1"
       threshold="0.00243902"
       smooth_angles="360"
       helper_size="0"
       simplify_individual_paths="false"
       simplify_just_coalesce="false" />
    <inkscape:path-effect
       effect="simplify"
       id="path-effect5952"
       is_visible="true"
       lpeversion="1"
       steps="1"
       threshold="0.00243902"
       smooth_angles="360"
       helper_size="0"
       simplify_individual_paths="false"
       simplify_just_coalesce="false" />
    <inkscape:path-effect
       effect="simplify"
       id="path-effect5948"
       is_visible="true"
       lpeversion="1"
       steps="1"
       threshold="0.00243902"
       smooth_angles="360"
       helper_size="0"
       simplify_individual_paths="false"
       simplify_just_coalesce="false" />
    <inkscape:path-effect
       effect="simplify"
       id="path-effect5944"
       is_visible="true"
       lpeversion="1"
       steps="1"
       threshold="0.00243902"
       smooth_angles="360"
       helper_size="0"
       simplify_individual_paths="false"
       simplify_just_coalesce="false" />
    <inkscape:path-effect
       effect="spiro"
       id="path-effect5940"
       is_visible="true"
       lpeversion="1" />
    <inkscape:path-effect
       effect="spiro"
       id="path-effect5932"
       is_visible="true"
       lpeversion="1" />
    <inkscape:path-effect
       effect="spiro"
       id="path-effect5928"
       is_visible="true"
       lpeversion="1" />
    <clipPath
       id="clipPath4432"
       clipPathUnits="userSpaceOnUse">
      <path
         id="path4430"
         clip-rule="evenodd"
         d="m 228.8,781.28003 h 142.24001 v 64 H 228.8 Z" />
    </clipPath>
    <clipPath
       id="clipPath4438"
       clipPathUnits="userSpaceOnUse">
      <path
         id="path4436"
         clip-rule="evenodd"
         d="m 228.8,781.12 h 142.24001 v 64.16003 H 228.8 Z" />
    </clipPath>
    <clipPath
       id="clipPath4450"
       clipPathUnits="userSpaceOnUse">
      <path
         id="path4448"
         clip-rule="evenodd"
         d="m 228.8,845.12 h 142.24001 v 64.16003 H 228.8 Z" />
    </clipPath>
    <clipPath
       id="clipPath4462"
       clipPathUnits="userSpaceOnUse">
      <path
         id="path4460"
         clip-rule="evenodd"
         d="m 228.8,909.12 h 142.24001 v 9.28002 H 228.8 Z" />
    </clipPath>
    <clipPath
       id="clipPath4474"
       clipPathUnits="userSpaceOnUse">
      <path
         id="path4472"
         clip-rule="evenodd"
         d="M 370.56,781.28003 H 512.96002 V 845.12 H 370.56 Z" />
    </clipPath>
    <clipPath
       id="clipPath4480"
       clipPathUnits="userSpaceOnUse">
      <path
         id="path4478"
         clip-rule="evenodd"
         d="m 370.56,781.12 h 142.40002 v 64 H 370.56 Z" />
    </clipPath>
    <clipPath
       id="clipPath4492"
       clipPathUnits="userSpaceOnUse">
      <path
         id="path4490"
         clip-rule="evenodd"
         d="m 370.56,844.96002 h 142.40002 v 64 H 370.56 Z" />
    </clipPath>
    <clipPath
       id="clipPath4504"
       clipPathUnits="userSpaceOnUse">
      <path
         id="path4502"
         clip-rule="evenodd"
         d="m 370.56,908.79999 h 142.40002 v 9.60003 H 370.56 Z" />
    </clipPath>
    <clipPath
       id="clipPath4516"
       clipPathUnits="userSpaceOnUse">
      <path
         id="path4514"
         clip-rule="evenodd"
         d="m 512.47998,781.28003 h 47.84003 v 182.56 h -47.84003 z" />
    </clipPath>
    <clipPath
       id="clipPath4522"
       clipPathUnits="userSpaceOnUse">
      <path
         id="path4520"
         clip-rule="evenodd"
         d="m 512.47998,781.12 h 47.84003 V 964 h -47.84003 z" />
    </clipPath>
    <clipPath
       id="clipPath4534"
       clipPathUnits="userSpaceOnUse">
      <path
         id="path4532"
         clip-rule="evenodd"
         d="m 228.8,918.08002 h 284.16002 v 31.83996 H 228.8 Z" />
    </clipPath>
    <clipPath
       id="clipPath4540"
       clipPathUnits="userSpaceOnUse">
      <path
         id="path4538"
         clip-rule="evenodd"
         d="m 228.8,917.91998 h 284.16002 v 32 H 228.8 Z" />
    </clipPath>
    <clipPath
       id="clipPath4552"
       clipPathUnits="userSpaceOnUse">
      <path
         id="path4550"
         clip-rule="evenodd"
         d="m 228.8,949.76001 h 284.16002 v 14.08002 H 228.8 Z" />
    </clipPath>
    <clipPath
       id="clipPath4558"
       clipPathUnits="userSpaceOnUse">
      <path
         id="path4556"
         clip-rule="evenodd"
         d="M 228.8,949.76001 H 512.96002 V 964 H 228.8 Z" />
    </clipPath>
    <marker
       inkscape:isstock="true"
       style="overflow:visible"
       id="Arrow1Mend-5"
       refX="0"
       refY="0"
       orient="auto"
       inkscape:stockid="Arrow1Mend">
      <path
         transform="matrix(-0.4,0,0,-0.4,-4,0)"
         style="fill:#000000;fill-opacity:1;fill-rule:evenodd;stroke:#000000;stroke-width:1pt;stroke-opacity:1"
         d="M 0,0 5,-5 -12.5,0 5,5 Z"
         id="path6906-2" />
    </marker>
    <marker
       inkscape:stockid="Arrow1Mend"
       orient="auto"
       refY="0"
       refX="0"
       id="Arrow1Mend-5-3"
       style="overflow:visible"
       inkscape:isstock="true">
      <path
         id="path6906-2-9"
         d="M 0,0 5,-5 -12.5,0 5,5 Z"
         style="fill:#000000;fill-opacity:1;fill-rule:evenodd;stroke:#000000;stroke-width:1pt;stroke-opacity:1"
         transform="matrix(-0.4,0,0,-0.4,-4,0)" />
    </marker>
    <marker
       inkscape:isstock="true"
       style="overflow:visible"
       id="Arrow1Mend-58"
       refX="0"
       refY="0"
       orient="auto"
       inkscape:stockid="Arrow1Mend">
      <path
         transform="matrix(-0.4,0,0,-0.4,-4,0)"
         style="fill:#000000;fill-opacity:1;fill-rule:evenodd;stroke:#000000;stroke-width:1pt;stroke-opacity:1"
         d="M 0,0 5,-5 -12.5,0 5,5 Z"
         id="path6906-6" />
    </marker>
    <marker
       inkscape:stockid="Arrow1Mend"
       orient="auto"
       refY="0"
       refX="0"
       id="Arrow1Mend-5-9"
       style="overflow:visible"
       inkscape:isstock="true">
      <path
         id="path6906-2-6"
         d="M 0,0 5,-5 -12.5,0 5,5 Z"
         style="fill:#000000;fill-opacity:1;fill-rule:evenodd;stroke:#000000;stroke-width:1pt;stroke-opacity:1"
         transform="matrix(-0.4,0,0,-0.4,-4,0)" />
    </marker>
    <marker
       inkscape:isstock="true"
       style="overflow:visible"
       id="Arrow1Mend-5-3-6"
       refX="0"
       refY="0"
       orient="auto"
       inkscape:stockid="Arrow1Mend">
      <path
         transform="matrix(-0.4,0,0,-0.4,-4,0)"
         style="fill:#000000;fill-opacity:1;fill-rule:evenodd;stroke:#000000;stroke-width:1pt;stroke-opacity:1"
         d="M 0,0 5,-5 -12.5,0 5,5 Z"
         id="path6906-2-9-7" />
    </marker>
  </defs>
  <sodipodi:namedview
     id="base"
     pagecolor="#ffffff"
     bordercolor="#666666"
     borderopacity="1.0"
     inkscape:pageopacity="0.0"
     inkscape:pageshadow="2"
     inkscape:zoom="3.959798"
     inkscape:cx="131.91988"
     inkscape:cy="91.439987"
     inkscape:document-units="mm"
     inkscape:current-layer="layer3"
     inkscape:document-rotation="0"
     showgrid="false"
     units="mm"
     fit-margin-top="0"
     fit-margin-left="0"
     fit-margin-right="0"
     fit-margin-bottom="0"
     inkscape:window-width="1920"
     inkscape:window-height="986"
     inkscape:window-x="-11"
     inkscape:window-y="-11"
     inkscape:window-maximized="1" />
  <metadata
     id="metadata5">
    <rdf:RDF>
      <cc:Work
         rdf:about="">
        <dc:format>image/svg+xml</dc:format>
        <dc:type
           rdf:resource="http://purl.org/dc/dcmitype/StillImage" />
        <dc:title></dc:title>
      </cc:Work>
    </rdf:RDF>
  </metadata>
  <g
     inkscape:label="レイヤー 1"
     inkscape:groupmode="layer"
     id="layer1"
     transform="translate(-60.549999,-187.36092)">
    <g
       transform="translate(0,-4.2333335)"
       id="g430">
      <path
         sodipodi:nodetypes="csscsscc"
         inkscape:original-d="m 85.354686,199.07818 c 1.097622,1.2803 1.250075,1.67169 2.692588,2.49599 0.626796,0.35817 2.6959,1.40422 3.189666,1.89798 0.381066,0.38107 4.145059,1.69123 4.630207,1.96076 2.18254,1.21252 2.17686,1.34479 4.535713,0.16536 1.78708,-0.89354 0.72934,-4.71305 0.37798,-6.11849 -0.11763,-0.47051 -0.49095,-0.7851 -0.66146,-1.22842 -0.673319,-1.75063 -1.592394,-3.73601 -3.141926,-4.84282"
         inkscape:path-effect="#path-effect5928"
         id="path5926"
         d="m 85.354686,199.07818 c 0.798093,0.93135 1.703511,1.77066 2.692588,2.49599 0.998936,0.73256 2.080077,1.34723 3.189666,1.89798 1.502014,0.74553 3.058622,1.37597 4.630207,1.96076 0.737284,0.27435 1.486871,0.54086 2.268959,0.62566 0.782088,0.0848 1.610071,-0.0272 2.266754,-0.4603 0.46814,-0.30879 0.82828,-0.76886 1.05122,-1.28345 0.22294,-0.51458 0.31229,-1.08182 0.29733,-1.64243 -0.0299,-1.12121 -0.46491,-2.19145 -0.97057,-3.19261 -0.20968,-0.41516 -0.4326,-0.82352 -0.66146,-1.22842 -0.947417,-1.67623 -1.997331,-3.29452 -3.141926,-4.84282"
         style="fill:none;stroke:#000000;stroke-width:0.165;stroke-linecap:butt;stroke-linejoin:miter;stroke-miterlimit:4;stroke-dasharray:none;stroke-opacity:1" />
      <path
         sodipodi:nodetypes="ccc"
         inkscape:original-d="m 98.607477,192.72346 c 0.381718,1.38713 1.016128,2.19328 1.653643,3.16555 2.58866,4.60207 5.95409,-1.70819 8.31548,-3.23642"
         inkscape:path-effect="#path-effect5944"
         id="path5942"
         d="m 98.607477,192.72346 c 0.209403,0.78094 0.574922,1.51037 1.007444,2.19144 0.272606,0.42926 0.554119,0.85206 0.829469,1.27991 0.34259,0.53234 0.79307,1.04641 1.40915,1.25884 0.53762,0.18538 1.12895,0.0554 1.62209,-0.19646 0.78312,-0.39997 1.43093,-1.01138 2.04755,-1.62761 0.82801,-0.82749 1.57135,-1.74065 2.45301,-2.51303 0.19032,-0.16673 0.38797,-0.32608 0.60041,-0.46396"
         style="fill:none;stroke:#000000;stroke-width:0.165;stroke-linecap:butt;stroke-linejoin:miter;stroke-miterlimit:4;stroke-dasharray:none;stroke-opacity:1" />
      <path
         sodipodi:nodetypes="ccc"
         inkscape:original-d="m 83.984523,199.69239 c 1.328921,1.42449 3.44714,3.33824 4.708979,4.25846 -1.909107,0.64555 -4.531514,-0.0633 -6.59886,-0.0299"
         inkscape:path-effect="#path-effect5952"
         id="path5950"
         d="m 83.984523,199.69239 c 0.934723,0.99469 1.926758,1.93495 2.956007,2.83087 0.568426,0.49479 2.468134,1.18888 1.752972,1.42759 -0.816133,0.27241 -1.68956,0.29586 -2.541466,0.25921 -1.290364,-0.0555 -2.569228,-0.28338 -3.861993,-0.29013 -0.06513,-3.4e-4 -0.130274,-3e-5 -0.195401,0.001"
         style="fill:none;stroke:#000000;stroke-width:0.165;stroke-linecap:butt;stroke-linejoin:miter;stroke-miterlimit:4;stroke-dasharray:none;stroke-opacity:1" />
      <path
         sodipodi:nodetypes="csssssc"
         inkscape:original-d="m 110.72486,204.49943 c -0.55056,-1.46685 -2.79019,-2.4078 -4.75569,-2.00072 -1.26428,0.26185 -2.3871,0.26592 -2.68424,-0.20773 -0.71462,-1.13913 -0.26504,-2.13143 0.30543,-2.86487 0.33155,-0.42627 1.07378,-1.19739 1.48996,-1.53364 0.60315,-0.48732 0.8986,-0.73148 2.05811,-1.74123 0.711,-0.61916 1.85432,-1.41597 2.65611,-1.7596"
         inkscape:path-effect="#path-effect5960"
         id="path5958"
         d="m 110.72486,204.49943 c -0.25371,-0.66774 -0.81585,-1.17162 -1.43223,-1.50364 -1.05026,-0.56573 -2.29712,-0.6815 -3.47093,-0.46759 -0.61447,0.11198 -1.24914,0.2109 -1.87091,0.10905 -0.27801,-0.0455 -0.55798,-0.16794 -0.7142,-0.42612 -0.28985,-0.47902 -0.3939,-1.06956 -0.25586,-1.61679 0.17039,-0.67549 0.62761,-1.22586 1.09201,-1.72523 0.38852,-0.41778 0.80184,-0.81249 1.24704,-1.17061 0.70451,-0.56671 1.36188,-1.18978 2.06645,-1.75597 0.67853,-0.54526 1.39223,-1.05764 2.17444,-1.44281 0.077,-0.0379 0.15493,-0.0742 0.23387,-0.10808"
         style="fill:none;stroke:#000000;stroke-width:0.165;stroke-linecap:butt;stroke-linejoin:miter;stroke-miterlimit:4;stroke-dasharray:none;stroke-opacity:1" />
      <path
         sodipodi:nodetypes="csc"
         inkscape:original-d="m 82.614359,205.66914 c 5.163091,-0.66444 8.241126,-0.75234 12.341953,0.74449 2.607191,0.95164 5.166498,0.93964 6.344248,3.29513"
         inkscape:path-effect="#path-effect5964"
         id="path5962"
         d="m 82.614359,205.66914 c 2.617528,-0.32862 5.270808,-0.62506 7.907717,-0.33438 1.603378,0.17675 3.159122,0.63207 4.678479,1.16536 1.258791,0.44183 2.585932,0.66801 3.822476,1.17613 0.812588,0.33391 1.557019,0.87245 2.040839,1.61779 0.0867,0.13358 0.16548,0.27228 0.23669,0.41472"
         style="fill:none;stroke:#000000;stroke-width:0.165;stroke-linecap:butt;stroke-linejoin:miter;stroke-miterlimit:4;stroke-dasharray:none;stroke-opacity:1" />
      <path
         sodipodi:nodetypes="cc"
         inkscape:original-d="m 101.30056,209.70876 c -0.99163,1.78469 -9.917139,3.11831 -12.3551,3.11831"
         inkscape:path-effect="#path-effect5968"
         id="path5966"
         d="m 101.30056,209.70876 c -0.21616,0.36183 -0.58976,0.59372 -0.95462,0.78113 -0.958373,0.49226 -1.998055,0.8025 -3.038278,1.06639 -2.01805,0.51195 -4.07299,0.88009 -6.141765,1.10714 -0.737594,0.081 -1.477774,0.15716 -2.220437,0.16365"
         style="fill:none;stroke:#000000;stroke-width:0.165;stroke-linecap:butt;stroke-linejoin:miter;stroke-miterlimit:4;stroke-dasharray:none;stroke-opacity:1" />
      <path
         sodipodi:nodetypes="cc"
         inkscape:original-d="m 88.94546,212.82707 c -1.403805,-0.99219 -1.406092,-2.83552 -2.208799,-4.05144"
         inkscape:path-effect="#path-effect5972"
         id="path5970"
         d="m 88.94546,212.82707 c -0.423637,-0.29589 -0.749732,-0.71247 -0.989946,-1.16682 -0.398801,-0.7543 -0.578397,-1.59867 -0.936222,-2.37041 -0.08233,-0.17756 -0.174741,-0.35078 -0.282631,-0.51421"
         style="fill:none;stroke:#000000;stroke-width:0.165;stroke-linecap:butt;stroke-linejoin:miter;stroke-miterlimit:4;stroke-dasharray:none;stroke-opacity:1" />
      <path
         inkscape:original-d="m 85.307439,209.35441 c 0.787234,1.21469 1.379408,2.92028 1.937129,4.37035 -2.370585,0.0763 -6.351348,0.93144 -8.457218,-0.47247"
         inkscape:path-effect="#path-effect5976"
         id="path5974"
         d="m 85.307439,209.35441 c 0.555725,0.8674 0.954774,1.82259 1.329154,2.77867 0.207089,0.52886 1.175487,1.56939 0.607975,1.59168 -1.142068,0.0448 -2.276212,0.19878 -3.416351,0.27247 -1.140788,0.0737 -2.300275,0.11338 -3.42622,-0.11612 -0.568019,-0.11578 -1.129328,-0.30567 -1.614647,-0.62882"
         style="fill:none;stroke:#000000;stroke-width:0.165;stroke-linecap:butt;stroke-linejoin:miter;stroke-miterlimit:4;stroke-dasharray:none;stroke-opacity:1" />
      <path
         sodipodi:nodetypes="ccc"
         inkscape:original-d="m 78.621986,215.63826 c 3.008453,-0.20202 6.709592,-0.14758 9.591144,0.21262 -1.428532,1.79941 -4.04793,6.56752 -6.142111,7.46502"
         inkscape:path-effect="#path-effect5984"
         id="path5982"
         d="m 78.621986,215.63826 c 2.417325,-0.1563 4.845317,-0.16113 7.262454,-0.003 0.777989,0.0508 2.806757,-0.39991 2.32869,0.21604 -0.66356,0.85494 -1.241627,1.77152 -1.849607,2.66578 -0.830926,1.22218 -1.650939,2.4664 -2.676561,3.53533 -0.473054,0.49303 -0.984168,0.98198 -1.615943,1.26391"
         style="fill:none;stroke:#000000;stroke-width:0.165;stroke-linecap:butt;stroke-linejoin:miter;stroke-miterlimit:4;stroke-dasharray:none;stroke-opacity:1" />
      <path
         sodipodi:nodetypes="csscsscc"
         inkscape:original-d="m 84.362499,224.16635 c 0.734889,-0.98296 1.765688,-1.74932 2.385974,-2.83482 1.601823,-2.80319 2.932643,-6.56665 6.378347,-6.85082 2.43207,-0.20057 9.22663,-1.29654 10.84319,-3.23642 0.19647,0.46208 0.0236,0.94881 0.0236,1.44103 0,2.23038 -0.32125,3.93249 -1.67727,5.74051 -0.65713,0.87617 -1.71722,1.98109 -2.24423,2.97657 -1.317857,2.48927 -2.709948,6.68461 -6.118495,7.11067"
         inkscape:path-effect="#path-effect5988"
         id="path5986"
         d="m 84.362499,224.16635 c 0.797426,-1.0563 1.860419,-1.89401 2.516814,-3.06683 0.915601,-1.63596 1.673545,-3.3881 2.910399,-4.81953 0.758064,-0.87732 1.775912,-1.60489 2.942854,-1.75032 0.704494,-0.0878 1.412867,-0.1458 2.115888,-0.24965 2.159714,-0.31904 4.331137,-0.70079 6.380196,-1.4659 0.91316,-0.34097 2.02607,-0.56813 2.57493,-1.39044 0.12264,-0.18374 0.19362,-0.19414 0.23354,0.0389 0.0845,0.49325 -0.0426,0.98452 -0.045,1.48169 -0.007,1.47536 -0.24758,2.97443 -0.92695,4.30357 -0.85008,1.66311 -2.35583,2.86883 -3.194636,4.54623 -0.858902,1.71759 -1.602908,3.53413 -2.881635,4.9961 -0.781524,0.89352 -1.83538,1.58685 -3.035264,1.72286"
         style="fill:none;stroke:#000000;stroke-width:0.165;stroke-linecap:butt;stroke-linejoin:miter;stroke-miterlimit:4;stroke-dasharray:none;stroke-opacity:1" />
      <path
         sodipodi:nodetypes="cccsc"
         inkscape:original-d="m 94.874961,230.59195 c 0.39266,0.0775 2.414182,-1.26933 3.543528,-2.43322 1.228317,-1.14178 3.218861,-8.02785 6.094861,-9.26042 -0.0269,2.16694 0.28349,4.33094 0.28349,6.52008 0,1.25802 -0.31646,3.12323 0.25986,4.27586"
         inkscape:path-effect="#path-effect5996"
         id="path5994"
         d="m 94.874961,230.59195 c 0.229507,0.004 0.440987,-0.11554 0.635923,-0.22305 0.81622,-0.45017 1.581806,-0.9945 2.274953,-1.61581 0.293288,-0.26289 0.610328,-0.51076 0.841032,-0.83136 0.445013,-0.61841 0.763051,-1.31595 1.09035,-2.00049 0.830321,-1.73661 1.587411,-3.53027 2.717761,-5.09776 0.52565,-0.72893 1.19449,-1.34065 1.94421,-1.8633 0.10222,-0.0713 0.13393,-0.0716 0.13297,0.0651 -0.0156,2.23688 0.34853,4.46192 0.27946,6.69845 -0.0335,1.08345 -0.19508,2.18355 0.0271,3.25571 0.0511,0.24636 0.12534,0.48926 0.23799,0.71481"
         style="fill:none;stroke:#000000;stroke-width:0.165;stroke-linecap:butt;stroke-linejoin:miter;stroke-miterlimit:4;stroke-dasharray:none;stroke-opacity:1" />
      <path
         sodipodi:nodetypes="cc"
         inkscape:original-d="m 107.11194,230.56832 c -2.18651,-4.55045 -0.87051,-8.80902 -0.87051,-13.6453"
         inkscape:path-effect="#path-effect6000"
         id="path5998"
         d="m 107.11194,230.56832 c -0.74784,-1.53804 -1.13232,-3.23437 -1.23043,-4.9376 -0.14599,-2.53454 0.24428,-5.05563 0.33812,-7.58436 0.0139,-0.37428 0.0218,-0.7488 0.0218,-1.12334"
         style="fill:none;stroke:#000000;stroke-width:0.165;stroke-linecap:butt;stroke-linejoin:miter;stroke-miterlimit:4;stroke-dasharray:none;stroke-opacity:1" />
      <path
         sodipodi:nodetypes="ccsc"
         inkscape:original-d="m 106.24143,216.92302 c -0.20856,-1.66183 -0.0751,-3.90593 0.77602,-5.18264 1.9114,2.00995 2.98402,5.55188 3.2128,8.22099 0.10099,1.17819 0.31605,2.17645 0.28348,4.01599"
         inkscape:path-effect="#path-effect6004"
         id="path6002"
         d="m 106.24143,216.92302 c -0.13438,-1.12173 -0.13183,-2.26903 0.093,-3.37805 0.12811,-0.63193 0.23777,-2.27741 0.68302,-1.80459 0.95473,1.01384 1.62412,2.26314 2.12127,3.55448 0.60536,1.57242 0.93562,3.23721 1.1144,4.91272 0.10003,0.93746 0.2264,1.87332 0.2552,2.81704 0.01,0.31747 0.011,0.63518 0.005,0.95274"
         style="fill:none;stroke:#000000;stroke-width:0.165;stroke-linecap:butt;stroke-linejoin:miter;stroke-miterlimit:4;stroke-dasharray:none;stroke-opacity:1" />
      <path
         inkscape:path-effect="#path-effect6008"
         inkscape:original-d="m 113.13594,224.49708 c -0.68509,-1.15924 -0.84187,-2.19335 -1.06306,-3.33091 -0.56582,-2.90993 -0.61957,-4.15798 -1.22843,-6.18936 -0.33119,-1.81132 -0.55258,-5.04383 -0.12846,-5.46802 4.99449,-3.70973 14.37867,-2.57045 20.16668,-2.65579"
         sodipodi:nodetypes="csccc"
         id="path6006"
         d="m 113.13594,224.49708 c -0.61953,-1.00824 -0.82862,-2.18779 -1.06306,-3.33091 -0.34235,-1.66931 -0.55989,-3.36115 -0.91717,-5.02795 -0.12592,-0.58744 -0.32651,-1.15468 -0.40821,-1.75284 -0.18183,-1.33127 -0.44108,-2.69153 -0.24289,-4.02339 0.0449,-0.30167 0.002,-0.70205 0.27011,-0.89645 1.89301,-1.37034 4.20689,-2.00345 6.48954,-2.33531 4.25852,-0.61912 8.56962,-0.27857 12.85301,-0.27253 0.25514,3.6e-4 0.51029,-9.4e-4 0.7654,-0.005"
         style="fill:none;stroke:#000000;stroke-width:0.165;stroke-linecap:butt;stroke-linejoin:miter;stroke-miterlimit:4;stroke-dasharray:none;stroke-opacity:1" />
      <path
         sodipodi:nodetypes="cssc"
         inkscape:original-d="m 110.72486,204.49943 c 0.40164,0.39781 1.51735,0.59336 2.04292,0.76855 1.1111,0.37036 4.78911,-0.43631 6.94901,-0.50113 2.77046,-0.0832 8.06263,-0.26828 10.99146,-0.53454"
         inkscape:path-effect="#path-effect6012"
         id="path6010"
         d="m 110.72486,204.49943 c 0.35363,0.31209 0.82471,0.4438 1.27147,0.55328 0.32765,0.0803 0.64264,0.21792 0.9761,0.26579 0.73244,0.10515 1.47512,0.018 2.20582,-0.0596 1.67041,-0.17755 3.33188,-0.45118 5.01489,-0.50657 3.23866,-0.10659 6.47932,-0.20609 9.71076,-0.45315 0.26826,-0.0205 0.53641,-0.0425 0.80435,-0.0668"
         style="fill:none;stroke:#000000;stroke-width:0.165;stroke-linecap:butt;stroke-linejoin:miter;stroke-miterlimit:4;stroke-dasharray:none;stroke-opacity:1" />
      <path
         inkscape:original-d="m 106.11975,209.0473 c -0.61911,-0.14303 -1.83142,-0.23183 -2.12611,-0.96856 -1.03607,-2.59017 1.77539,-5.09905 3.70889,-3.16555 1.21108,1.21108 0.70261,4.78708 -1.58278,4.13411 z"
         inkscape:path-effect="#path-effect6022"
         id="path6020"
         d="m 106.11975,209.0473 c -0.50534,-0.1099 -1.03021,-0.16673 -1.50513,-0.38432 -0.25624,-0.1174 -0.50279,-0.29963 -0.61391,-0.56709 -0.27983,-0.67352 -0.30449,-1.44988 -0.0552,-2.1376 0.25834,-0.71271 0.81221,-1.33076 1.52877,-1.60257 0.47898,-0.18169 1.02788,-0.16878 1.49562,0.0428 0.32857,0.14859 0.63187,0.367 0.85399,0.65093 0.32558,0.41618 0.4729,0.9468 0.5069,1.46684 0.0392,0.5995 -0.0552,1.22054 -0.34283,1.75342 -0.19757,0.36606 -0.52064,0.67879 -0.92685,0.79913 -0.30673,0.0909 -0.63701,0.0663 -0.94135,-0.0215 z"
         style="fill:none;stroke:#000000;stroke-width:0.165;stroke-linecap:butt;stroke-linejoin:miter;stroke-miterlimit:4;stroke-dasharray:none;stroke-opacity:1" />
    </g>
  </g>
  <g
     inkscape:groupmode="layer"
     id="layer3"
     inkscape:label="レイヤー 2"
     style="display:inline">
    <text
       xml:space="preserve"
       style="font-style:normal;font-variant:normal;font-weight:normal;font-stretch:normal;font-size:3.52778px;line-height:1.25;font-family:'MS Mincho';-inkscape-font-specification:'MS Mincho, Normal';font-variant-ligatures:normal;font-variant-caps:normal;font-variant-numeric:normal;font-variant-east-asian:normal;letter-spacing:0px;word-spacing:0px;fill:#000000;fill-opacity:1;stroke:none;stroke-width:0.264583"
       x="1.3642749"
       y="15.846559"
       id="text6034"><tspan
         sodipodi:role="line"
         id="tspan6032"
         x="1.3642749"
         y="15.846559"
         style="font-style:normal;font-variant:normal;font-weight:normal;font-stretch:normal;font-size:3.52778px;font-family:'MS Mincho';-inkscape-font-specification:'MS Mincho, Normal';font-variant-ligatures:normal;font-variant-caps:normal;font-variant-numeric:normal;font-variant-east-asian:normal;stroke-width:0.264583">樹状突起</tspan></text>
    <text
       id="text6034-6"
       y="7.0697122"
       x="66.390007"
       style="font-style:normal;font-variant:normal;font-weight:normal;font-stretch:normal;font-size:3.52778px;line-height:1.25;font-family:'MS Mincho';-inkscape-font-specification:'MS Mincho, Normal';font-variant-ligatures:normal;font-variant-caps:normal;font-variant-numeric:normal;font-variant-east-asian:normal;letter-spacing:0px;word-spacing:0px;fill:#000000;fill-opacity:1;stroke:none;stroke-width:0.264583"
       xml:space="preserve"><tspan
         style="font-style:normal;font-variant:normal;font-weight:normal;font-stretch:normal;font-size:3.52778px;font-family:'MS Mincho';-inkscape-font-specification:'MS Mincho, Normal';font-variant-ligatures:normal;font-variant-caps:normal;font-variant-numeric:normal;font-variant-east-asian:normal;stroke-width:0.264583"
         y="7.0697122"
         x="66.390007"
         id="tspan6032-3"
         sodipodi:role="line">軸索</tspan></text>
    <text
       id="text6034-1"
       y="27.181746"
       x="54.496525"
       style="font-style:normal;font-variant:normal;font-weight:normal;font-stretch:normal;font-size:3.52778px;line-height:1.25;font-family:'MS Mincho';-inkscape-font-specification:'MS Mincho, Normal';font-variant-ligatures:normal;font-variant-caps:normal;font-variant-numeric:normal;font-variant-east-asian:normal;letter-spacing:0px;word-spacing:0px;fill:#000000;fill-opacity:1;stroke:none;stroke-width:0.264583"
       xml:space="preserve"><tspan
         style="font-style:normal;font-variant:normal;font-weight:normal;font-stretch:normal;font-size:3.52778px;font-family:'MS Mincho';-inkscape-font-specification:'MS Mincho, Normal';font-variant-ligatures:normal;font-variant-caps:normal;font-variant-numeric:normal;font-variant-east-asian:normal;stroke-width:0.264583"
         y="27.181746"
         x="54.496525"
         id="tspan6032-7"
         sodipodi:role="line">細胞体</tspan><tspan
         id="tspan6064"
         style="font-style:normal;font-variant:normal;font-weight:normal;font-stretch:normal;font-size:3.52778px;font-family:'MS Mincho';-inkscape-font-specification:'MS Mincho, Normal';font-variant-ligatures:normal;font-variant-caps:normal;font-variant-numeric:normal;font-variant-east-asian:normal;stroke-width:0.264583"
         y="31.591469"
         x="54.496525"
         sodipodi:role="line" /></text>
    <path
       sodipodi:nodetypes="cc"
       id="path6072"
       d="m 21.275849,21.659656 -9.020346,-4.74403"
       style="fill:none;stroke:#000000;stroke-width:0.264999;stroke-linecap:butt;stroke-linejoin:miter;stroke-miterlimit:4;stroke-dasharray:none;stroke-opacity:1;marker-end:url(#Arrow1Mend-58)" />
    <path
       style="fill:none;stroke:#000000;stroke-width:0.264999;stroke-linecap:butt;stroke-linejoin:miter;stroke-miterlimit:4;stroke-dasharray:none;stroke-opacity:1;marker-end:url(#Arrow1Mend-5-9)"
       d="m 50.641904,18.281469 8.218532,5.211757"
       id="path6072-0"
       sodipodi:nodetypes="cc" />
    <path
       sodipodi:nodetypes="cc"
       id="path6072-0-9"
       d="M 63.026675,12.525065 67.904336,8.2487562"
       style="fill:none;stroke:#000000;stroke-width:0.264999;stroke-linecap:butt;stroke-linejoin:miter;stroke-miterlimit:4;stroke-dasharray:none;stroke-opacity:1;marker-end:url(#Arrow1Mend-5-3-6)" />
  </g>
</svg>
