<svg width="1856" height="1461" xmlns="http://www.w3.org/2000/svg" xmlns:xlink="http://www.w3.org/1999/xlink" overflow="hidden"><defs><clipPath id="clip0"><rect x="2433" y="615" width="1856" height="1461"/></clipPath><clipPath id="clip1"><rect x="2754" y="942" width="253" height="771"/></clipPath><clipPath id="clip2"><rect x="3006" y="326" width="640" height="2003"/></clipPath><clipPath id="clip3"><rect x="3645" y="326" width="639" height="2003"/></clipPath><clipPath id="clip4"><rect x="2754" y="1437" width="253" height="771"/></clipPath><clipPath id="clip5"><rect x="3006" y="821" width="640" height="2003"/></clipPath><clipPath id="clip6"><rect x="3645" y="821" width="639" height="2003"/></clipPath></defs><g clip-path="url(#clip0)" transform="translate(-2433 -615)"><path d="M2435.54 617.324 2754.82 617.324 2754.82 865.029 2435.54 865.029Z" fill="#FFFFFF" fill-rule="evenodd"/><path d="M2754.82 617.324 3006.55 617.324 3006.55 865.029 2754.82 865.029Z" fill="#FFFFFF" fill-rule="evenodd"/><path d="M3006.55 617.324 4283.65 617.324 4283.65 865.029 3006.55 865.029Z" fill="#BFBFBF" fill-rule="evenodd"/><path d="M2435.54 865.029 2754.82 865.029 2754.82 1079.63 2435.54 1079.63Z" fill="#FFFFFF" fill-rule="evenodd"/><path d="M2754.82 865.029 3006.55 865.029 3006.55 1079.63 2754.82 1079.63Z" fill="#FFFFFF" fill-rule="evenodd"/><path d="M3006.55 865.029 3645.1 865.029 3645.1 1079.63 3006.55 1079.63Z" fill="#BFBFBF" fill-rule="evenodd"/><path d="M3645.1 865.029 4283.65 865.029 4283.65 1079.63 3645.1 1079.63Z" fill="#BFBFBF" fill-rule="evenodd"/><path d="M2435.54 1079.63 2754.82 1079.63 2754.82 2070.45 2435.54 2070.45Z" fill="#BFBFBF" fill-rule="evenodd"/><path d="M2754.82 1079.63 3006.55 1079.63 3006.55 1575.04 2754.82 1575.04Z" fill="#BFBFBF" fill-rule="evenodd"/><path d="M3006.55 1079.63 3645.1 1079.63 3645.1 1575.04 3006.55 1575.04Z" fill="#F2F2F2" fill-rule="evenodd"/><path d="M3645.1 1079.63 4283.65 1079.63 4283.65 1575.04 3645.1 1575.04Z" fill="#F2F2F2" fill-rule="evenodd"/><path d="M2754.82 1575.04 3006.55 1575.04 3006.55 2070.45 2754.82 2070.45Z" fill="#BFBFBF" fill-rule="evenodd"/><path d="M3006.55 1575.04 3645.1 1575.04 3645.1 2070.45 3006.55 2070.45Z" fill="#F2F2F2" fill-rule="evenodd"/><path d="M3645.1 1575.04 4283.65 1575.04 4283.65 2070.45 3645.1 2070.45Z" fill="#F2F2F2" fill-rule="evenodd"/><path d="M2754.82 615.032 2754.82 2072.74" stroke="#FFFFFF" stroke-width="4.58333" stroke-linejoin="round" stroke-miterlimit="10" fill="none" fill-rule="evenodd"/><path d="M3006.55 615.032 3006.55 2072.74" stroke="#FFFFFF" stroke-width="4.58333" stroke-linejoin="round" stroke-miterlimit="10" fill="none" fill-rule="evenodd"/><path d="M3645.1 862.737 3645.1 2072.74" stroke="#FFFFFF" stroke-width="4.58333" stroke-linejoin="round" stroke-miterlimit="10" fill="none" fill-rule="evenodd"/><path d="M2433.25 865.029 4285.94 865.029" stroke="#FFFFFF" stroke-width="4.58333" stroke-linejoin="round" stroke-miterlimit="10" fill="none" fill-rule="evenodd"/><path d="M2433.25 1079.63 4285.94 1079.63" stroke="#FFFFFF" stroke-width="4.58333" stroke-linejoin="round" stroke-miterlimit="10" fill="none" fill-rule="evenodd"/><path d="M2752.53 1575.04 4285.94 1575.04" stroke="#FFFFFF" stroke-width="4.58333" stroke-linejoin="round" stroke-miterlimit="10" fill="none" fill-rule="evenodd"/><path d="M2435.54 615.032 2435.54 2072.74" stroke="#FFFFFF" stroke-width="4.58333" stroke-linejoin="round" stroke-miterlimit="10" fill="none" fill-rule="evenodd"/><path d="M4283.65 615.032 4283.65 2072.74" stroke="#FFFFFF" stroke-width="4.58333" stroke-linejoin="round" stroke-miterlimit="10" fill="none" fill-rule="evenodd"/><path d="M2433.25 617.324 4285.94 617.324" stroke="#FFFFFF" stroke-width="4.58333" stroke-linejoin="round" stroke-miterlimit="10" fill="none" fill-rule="evenodd"/><path d="M2433.25 2070.45 4285.94 2070.45" stroke="#FFFFFF" stroke-width="4.58333" stroke-linejoin="round" stroke-miterlimit="10" fill="none" fill-rule="evenodd"/><text font-family="Meiryo,Meiryo_MSFontService,sans-serif" font-weight="400" font-size="92" transform="matrix(1 0 0 1 3553.43 764)">予測<tspan font-size="92" x="-319.274" y="231">陰性</tspan><tspan font-size="92" x="319.274" y="231">陽性</tspan></text><text font-family="Meiryo,Meiryo_MSFontService,sans-serif" font-weight="400" font-size="92" writing-mode="tb-rl" transform="matrix(1 2.95822e-25 -2.95822e-25 1 2567.18 1300)" x="28.5254" y="17.4746">実際</text><text font-family="Meiryo,Meiryo_MSFontService,sans-serif" font-weight="400" font-size="92" writing-mode="tb-rl" transform="matrix(1 2.95822e-25 -2.95822e-25 1 2567.18 1483)" x="28.5254" y="17.4746">のラベル</text><g clip-path="url(#clip1)"><text font-family="Meiryo,Meiryo_MSFontService,sans-serif" font-weight="400" font-size="92" transform="matrix(1 0 0 1 2789.02 1350)">陰性</text></g><text font-family="Meiryo,Meiryo_MSFontService,sans-serif" font-weight="400" font-size="92" transform="matrix(1 0 0 1 3188.33 1262)">真陰性</text><g clip-path="url(#clip2)"><text font-family="Meiryo,Meiryo_MSFontService,sans-serif" font-weight="400" font-size="73" transform="matrix(1 0 0 1 3061.55 1356)">(True Negative </text></g><text font-family="Meiryo,Meiryo_MSFontService,sans-serif" font-weight="400" font-size="73" transform="matrix(1 0 0 1 3230.15 1444)">/ TN)<tspan font-size="92" x="596.725" y="-182">偽陽性</tspan></text><g clip-path="url(#clip3)"><text font-family="Meiryo,Meiryo_MSFontService,sans-serif" font-weight="400" font-size="73" transform="matrix(1 0 0 1 3681.19 1356)">(False Positive / </text></g><text font-family="Meiryo,Meiryo_MSFontService,sans-serif" font-weight="400" font-size="73" transform="matrix(1 0 0 1 3905.66 1444)">FP)</text><g clip-path="url(#clip4)"><text font-family="Meiryo,Meiryo_MSFontService,sans-serif" font-weight="400" font-size="92" transform="matrix(1 0 0 1 2789.02 1846)">陽性</text></g><text font-family="Meiryo,Meiryo_MSFontService,sans-serif" font-weight="400" font-size="92" transform="matrix(1 0 0 1 3188.31 1758)">偽陰性</text><g clip-path="url(#clip5)"><text font-family="Meiryo,Meiryo_MSFontService,sans-serif" font-weight="400" font-size="73" transform="matrix(1 0 0 1 3050.36 1852)">(False Negative </text></g><text font-family="Meiryo,Meiryo_MSFontService,sans-serif" font-weight="400" font-size="73" transform="matrix(1 0 0 1 3232.43 1940)">/ FN)<tspan font-size="92" x="594.433" y="-182">真陽性</tspan></text><g clip-path="url(#clip6)"><text font-family="Meiryo,Meiryo_MSFontService,sans-serif" font-weight="400" font-size="73" transform="matrix(1 0 0 1 3692.39 1852)">(True Positive / </text></g><text font-family="Meiryo,Meiryo_MSFontService,sans-serif" font-weight="400" font-size="73" transform="matrix(1 0 0 1 3903.36 1940)">TP)</text></g></svg>